# xmcd
#
# Track frame offsets:
# 183
# 14208
# 30023
# 43303
# 58980
# 74963
# 88833
# 107060
# 117780
# 131585
# 153630
# 165258
# 176360
# 189480
# 200678
# 217120
# 235300
# 252748
# 268530
# 286060
# 303035
# 319455
#
# Disc length: 4397 seconds
#
# Revision: 3
# Processed by: cddbd v1.5.2PL0 Copyright (c) Steve Scherf et al.
# Submitted via: Axialis_AX_CDPlayer 2.6
#
DISCID=4f112b16
DTITLE=Various Artist - Traumreise der Erinnerung CD4
DYEAR=1990
DGENRE=Volksmusik und Schlager
TTITLE0=Bully Buhlan - Ich hab´ mich so an dich gewöhnt
TTITLE1=Margot Eskens - Ein Herz, das kann man nicht kaufen
TTITLE2=Dalida - Er war gerade 18 Jahr
TTITLE3=Howard Carpendale - Da nahm er seine Gitarre
TTITLE4=Rebecca - Schön ist jeder Tag der Liebe
TTITLE5=Peter Alexander - Das Wunder bist du
TTITLE6=Demis Roussos - Schön wie Mona Lisa
TTITLE7=Anna-Lena - Dein Herz, das muß aus Gold sein
TTITLE8=Phil and John - Du oder keine
TTITLE9=Udo Jürgens - Sag mir wie
TTITLE10=Peter Beil - Alle meine Träume
TTITLE11=Heidi Brühl - Das kann Morgen vorbei sein
TTITLE12=Gitte and Rex Gildo - Vom Stadtpark die Laternen
TTITLE13=Roy Black - Du bist nicht alleinTrack 14
TTITLE14=Manuel und Pony - Das Lied von Manuel
TTITLE15=Mireille Mathieu - Der Chlochard
TTITLE16=Andreas Martin - Amore Mio
TTITLE17=Marianne Rosenberg - Er ist nicht wie du
TTITLE18=Udo Jürgens - Ich war niemals fort von dir
TTITLE19=Hanne Haller - Weil du ein zärtlicher Mann bist
TTITLE20=Monica Morell - Hallo, ist denn hier keiner
TTITLE21=Michael Holm - Alle Wünsche kann man nicht erfüllen
EXTD=CD von I.B.
EXTT0=
EXTT1=
EXTT2=
EXTT3=
EXTT4=
EXTT5=
EXTT6=
EXTT7=
EXTT8=
EXTT9=
EXTT10=
EXTT11=
EXTT12=
EXTT13=
EXTT14=
EXTT15=
EXTT16=
EXTT17=
EXTT18=
EXTT19=
EXTT20=
EXTT21=
PLAYORDER=
